solid Sensor Mount
facet normal 0.0 -1.0 0.0
  outer loop
    vertex 1.5947878447205959 0.0 1.220212155279404
    vertex 1.52 0.0 0.0
    vertex 1.5947878447205959 0.0 -0.0017690000000000206
  endloop
endfacet
facet normal 0.0 -1.0 0.0
  outer loop
    vertex 1.52 0.0 0.0
    vertex 1.5947878447205959 0.0 1.220212155279404
    vertex 1.52 0.0 1.1199999999999999
  endloop
endfacet
facet normal 0.0 -1.0 0.0
  outer loop
    vertex 1.52 0.0 1.1199999999999999
    vertex 1.5947878447205959 0.0 1.220212155279404
    vertex 0.0 0.0 1.1199999999999999
  endloop
endfacet
facet normal 0.0 -1.0 0.0
  outer loop
    vertex 0.0 0.0 1.1199999999999999
    vertex 1.5947878447205959 0.0 1.220212155279404
    vertex -0.075 0.0 1.22
  endloop
endfacet
facet normal 0.0 -1.0 0.0
  outer loop
    vertex -0.075 0.0 1.22
    vertex 1.5947878447205959 0.0 1.220212155279404
    vertex -0.07244443697168025 0.0 1.239411428382689
  endloop
endfacet
facet normal 0.0 -1.0 0.0
  outer loop
    vertex -0.07244443697168025 0.0 1.239411428382689
    vertex 1.5947878447205959 0.0 1.220212155279404
    vertex 1.5922395107081202 0.0 1.2395686738352643
  endloop
endfacet
facet normal 0.0 -1.0 0.0
  outer loop
    vertex -0.07244443697168025 0.0 1.239411428382689
    vertex 1.5922395107081202 0.0 1.2395686738352643
    vertex -0.0692909649383466 0.0 1.2487012574273817
  endloop
endfacet
facet normal 0.0 -1.0 0.0
  outer loop
    vertex -0.0692909649383466 0.0 1.2487012574273817
    vertex 1.5922395107081202 0.0 1.2395686738352643
    vertex 1.5890949590179908 0.0 1.248832224396269
  endloop
endfacet
facet normal 0.0 -1.0 0.0
  outer loop
    vertex -0.0692909649383466 0.0 1.2487012574273817
    vertex 1.5890949590179908 0.0 1.248832224396269
    vertex -0.06495190528383298 0.0 1.2575
  endloop
endfacet
facet normal 0.0 -1.0 0.0
  outer loop
    vertex -0.06495190528383298 0.0 1.2575
    vertex 1.5890949590179908 0.0 1.248832224396269
    vertex 1.584768173422322 0.0 1.257606077639702
  endloop
endfacet
facet normal 0.0 -1.0 0.0
  outer loop
    vertex -0.06495190528383298 0.0 1.2575
    vertex 1.584768173422322 0.0 1.257606077639702
    vertex -0.05950150052184269 0.0 1.265657107175654
  endloop
endfacet
facet normal 0.0 -1.0 0.0
  outer loop
    vertex -0.05950150052184269 0.0 1.265657107175654
    vertex 1.584768173422322 0.0 1.257606077639702
    vertex 1.5793331864222668 0.0 1.2657401105039963
  endloop
endfacet
facet normal 0.0 -1.0 0.0
  outer loop
    vertex -0.05950150052184269 0.0 1.265657107175654
    vertex 1.5793331864222668 0.0 1.2657401105039963
    vertex -0.05303300858899111 0.0 1.273033008588991
  endloop
endfacet
facet normal 0.0 -1.0 0.0
  outer loop
    vertex -0.05303300858899111 0.0 1.273033008588991
    vertex 1.5793331864222668 0.0 1.2657401105039963
    vertex 1.5728829921522598 0.0 1.2730951474316639
  endloop
endfacet
facet normal 0.0 -1.0 0.0
  outer loop
    vertex -0.05303300858899111 0.0 1.273033008588991
    vertex 1.5728829921522598 0.0 1.2730951474316639
    vertex -0.045657107175654084 0.0 1.2795015005218426
  endloop
endfacet
facet normal 0.0 -1.0 0.0
  outer loop
    vertex -0.045657107175654084 0.0 1.2795015005218426
    vertex 1.5728829921522598 0.0 1.2730951474316639
    vertex 1.5655279552245922 0.0 1.2795453417016711
  endloop
endfacet
facet normal 0.0 -1.0 0.0
  outer loop
    vertex -0.045657107175654084 0.0 1.2795015005218426
    vertex 1.5655279552245922 0.0 1.2795453417016711
    vertex -0.037500000000000026 0.0 1.2849519052838327
  endloop
endfacet
facet normal 0.0 -1.0 0.0
  outer loop
    vertex -0.037500000000000026 0.0 1.2849519052838327
    vertex 1.5655279552245922 0.0 1.2795453417016711
    vertex 1.557393922360298 0.0 1.284980328701726
  endloop
endfacet
facet normal 0.0 -1.0 0.0
  outer loop
    vertex -0.037500000000000026 0.0 1.2849519052838327
    vertex 1.557393922360298 0.0 1.284980328701726
    vertex -0.028701257427381752 0.0 1.2892909649383464
  endloop
endfacet
facet normal 0.0 -1.0 0.0
  outer loop
    vertex -0.028701257427381752 0.0 1.2892909649383464
    vertex 1.557393922360298 0.0 1.284980328701726
    vertex 1.548620069116865 0.0 1.2893071142973949
  endloop
endfacet
facet normal 0.0 -1.0 0.0
  outer loop
    vertex -0.028701257427381752 0.0 1.2892909649383464
    vertex 1.548620069116865 0.0 1.2893071142973949
    vertex -0.01941142838268907 0.0 1.29244443697168
  endloop
endfacet
facet normal 0.0 -1.0 0.0
  outer loop
    vertex -0.01941142838268907 0.0 1.29244443697168
    vertex 1.548620069116865 0.0 1.2893071142973949
    vertex 1.5393565185558602 0.0 1.2924516659875243
  endloop
endfacet
facet normal 0.0 -1.0 0.0
  outer loop
    vertex -0.01941142838268907 0.0 1.29244443697168
    vertex 1.5393565185558602 0.0 1.2924516659875243
    vertex 0.0 0.0 1.295
  endloop
endfacet
facet normal 0.0 -1.0 0.0
  outer loop
    vertex 0.0 0.0 1.295
    vertex 1.5393565185558602 0.0 1.2924516659875243
    vertex 1.52 0.0 1.295
  endloop
endfacet
facet normal 0.0 -1.0 0.0
  outer loop
    vertex 0.0 0.0 0.0
    vertex -0.075 0.0 1.22
    vertex -0.075 0.0 -0.0017690000000001316
  endloop
endfacet
facet normal 0.0 -1.0 0.0
  outer loop
    vertex -0.075 0.0 1.22
    vertex 0.0 0.0 0.0
    vertex 0.0 0.0 1.1199999999999999
  endloop
endfacet
facet normal -0.0 1.0 -0.0
  outer loop
    vertex -0.075 1.25 1.22
    vertex 0.0 1.25 0.0
    vertex -0.075 1.25 -0.0017690000000001316
  endloop
endfacet
facet normal -0.0 1.0 -0.0
  outer loop
    vertex 0.0 1.25 0.0
    vertex -0.075 1.25 1.22
    vertex 0.0 1.25 1.1199999999999999
  endloop
endfacet
facet normal -0.0 1.0 -0.0
  outer loop
    vertex 0.0 1.25 1.1199999999999999
    vertex -0.075 1.25 1.22
    vertex 1.52 1.25 1.1199999999999999
  endloop
endfacet
facet normal -0.0 1.0 -0.0
  outer loop
    vertex 1.52 1.25 0.0
    vertex 1.5947878447205959 1.25 1.220212155279404
    vertex 1.5947878447205959 1.25 -0.0017690000000000206
  endloop
endfacet
facet normal -0.0 1.0 -0.0
  outer loop
    vertex 1.5947878447205959 1.25 1.220212155279404
    vertex 1.52 1.25 0.0
    vertex 1.52 1.25 1.1199999999999999
  endloop
endfacet
facet normal -0.0 1.0 -0.0
  outer loop
    vertex 1.5947878447205959 1.25 1.220212155279404
    vertex 1.52 1.25 1.1199999999999999
    vertex -0.075 1.25 1.22
  endloop
endfacet
facet normal -0.0 1.0 -0.0
  outer loop
    vertex 1.5947878447205959 1.25 1.220212155279404
    vertex -0.075 1.25 1.22
    vertex -0.07244443697168025 1.25 1.239411428382689
  endloop
endfacet
facet normal -0.0 1.0 -0.0
  outer loop
    vertex 1.5947878447205959 1.25 1.220212155279404
    vertex -0.07244443697168025 1.25 1.239411428382689
    vertex 0.6819927419729136 1.25 1.2359448818897638
  endloop
endfacet
facet normal -0.0 1.0 -0.0
  outer loop
    vertex 0.6819927419729136 1.25 1.2359448818897638
    vertex -0.07244443697168025 1.25 1.239411428382689
    vertex 0.6819927419729136 1.25 1.295
  endloop
endfacet
facet normal -0.0 1.0 -0.0
  outer loop
    vertex 0.6819927419729136 1.25 1.295
    vertex -0.07244443697168025 1.25 1.239411428382689
    vertex -0.0692909649383466 1.25 1.2487012574273817
  endloop
endfacet
facet normal -0.0 1.0 -0.0
  outer loop
    vertex 0.6819927419729136 1.25 1.295
    vertex -0.0692909649383466 1.25 1.2487012574273817
    vertex -0.06495190528383298 1.25 1.2575
  endloop
endfacet
facet normal -0.0 1.0 -0.0
  outer loop
    vertex 0.6819927419729136 1.25 1.295
    vertex -0.06495190528383298 1.25 1.2575
    vertex -0.05950150052184269 1.25 1.265657107175654
  endloop
endfacet
facet normal -0.0 1.0 -0.0
  outer loop
    vertex 0.6819927419729136 1.25 1.295
    vertex -0.05950150052184269 1.25 1.265657107175654
    vertex -0.05303300858899111 1.25 1.273033008588991
  endloop
endfacet
facet normal -0.0 1.0 -0.0
  outer loop
    vertex 0.6819927419729136 1.25 1.295
    vertex -0.05303300858899111 1.25 1.273033008588991
    vertex -0.045657107175654084 1.25 1.2795015005218426
  endloop
endfacet
facet normal -0.0 1.0 -0.0
  outer loop
    vertex 0.6819927419729136 1.25 1.295
    vertex -0.045657107175654084 1.25 1.2795015005218426
    vertex -0.037500000000000026 1.25 1.2849519052838327
  endloop
endfacet
facet normal -0.0 1.0 -0.0
  outer loop
    vertex 0.6819927419729136 1.25 1.295
    vertex -0.037500000000000026 1.25 1.2849519052838327
    vertex -0.028701257427381752 1.25 1.2892909649383464
  endloop
endfacet
facet normal -0.0 1.0 -0.0
  outer loop
    vertex 0.6819927419729136 1.25 1.295
    vertex -0.028701257427381752 1.25 1.2892909649383464
    vertex -0.01941142838268907 1.25 1.29244443697168
  endloop
endfacet
facet normal -0.0 1.0 -0.0
  outer loop
    vertex 0.6819927419729136 1.25 1.295
    vertex -0.01941142838268907 1.25 1.29244443697168
    vertex 0.0 1.25 1.295
  endloop
endfacet
facet normal -0.0 1.0 -0.0
  outer loop
    vertex 1.5947878447205959 1.25 1.220212155279404
    vertex 0.8394730569335436 1.25 1.2359448818897638
    vertex 1.5922395107081202 1.25 1.2395686738352643
  endloop
endfacet
facet normal -0.0 1.0 -0.0
  outer loop
    vertex 0.8394730569335436 1.25 1.2359448818897638
    vertex 1.5947878447205959 1.25 1.220212155279404
    vertex 0.6819927419729136 1.25 1.2359448818897638
  endloop
endfacet
facet normal -0.0 1.0 -0.0
  outer loop
    vertex 1.5922395107081202 1.25 1.2395686738352643
    vertex 0.8394730569335436 1.25 1.2359448818897638
    vertex 0.8394730569335436 1.25 1.295
  endloop
endfacet
facet normal -0.0 1.0 -0.0
  outer loop
    vertex 1.5922395107081202 1.25 1.2395686738352643
    vertex 0.8394730569335436 1.25 1.295
    vertex 1.5890949590179908 1.25 1.248832224396269
  endloop
endfacet
facet normal -0.0 1.0 -0.0
  outer loop
    vertex 1.5890949590179908 1.25 1.248832224396269
    vertex 0.8394730569335436 1.25 1.295
    vertex 1.584768173422322 1.25 1.257606077639702
  endloop
endfacet
facet normal -0.0 1.0 -0.0
  outer loop
    vertex 1.584768173422322 1.25 1.257606077639702
    vertex 0.8394730569335436 1.25 1.295
    vertex 1.5793331864222668 1.25 1.2657401105039963
  endloop
endfacet
facet normal -0.0 1.0 -0.0
  outer loop
    vertex 1.5793331864222668 1.25 1.2657401105039963
    vertex 0.8394730569335436 1.25 1.295
    vertex 1.5728829921522598 1.25 1.2730951474316639
  endloop
endfacet
facet normal -0.0 1.0 -0.0
  outer loop
    vertex 1.5728829921522598 1.25 1.2730951474316639
    vertex 0.8394730569335436 1.25 1.295
    vertex 1.5655279552245922 1.25 1.2795453417016711
  endloop
endfacet
facet normal -0.0 1.0 -0.0
  outer loop
    vertex 1.5655279552245922 1.25 1.2795453417016711
    vertex 0.8394730569335436 1.25 1.295
    vertex 1.557393922360298 1.25 1.284980328701726
  endloop
endfacet
facet normal -0.0 1.0 -0.0
  outer loop
    vertex 1.557393922360298 1.25 1.284980328701726
    vertex 0.8394730569335436 1.25 1.295
    vertex 1.548620069116865 1.25 1.2893071142973949
  endloop
endfacet
facet normal -0.0 1.0 -0.0
  outer loop
    vertex 1.548620069116865 1.25 1.2893071142973949
    vertex 0.8394730569335436 1.25 1.295
    vertex 1.5393565185558602 1.25 1.2924516659875243
  endloop
endfacet
facet normal -0.0 1.0 -0.0
  outer loop
    vertex 1.5393565185558602 1.25 1.2924516659875243
    vertex 0.8394730569335436 1.25 1.295
    vertex 1.52 1.25 1.295
  endloop
endfacet
facet normal 1.0 -0.0 -0.0
  outer loop
    vertex 1.5947878447205959 1.25 -0.0017690000000000206
    vertex 1.5947878447205959 0.0 1.220212155279404
    vertex 1.5947878447205959 0.0 -0.0017690000000000206
  endloop
endfacet
facet normal 1.0 -0.0 -0.0
  outer loop
    vertex 1.5947878447205959 0.0 1.220212155279404
    vertex 1.5947878447205959 1.25 -0.0017690000000000206
    vertex 1.5947878447205959 1.25 1.220212155279404
  endloop
endfacet
facet normal 0.991444861373811 0.0 0.1305261922200469
  outer loop
    vertex 1.5947878447205959 1.25 1.220212155279404
    vertex 1.5922395107081202 0.0 1.2395686738352643
    vertex 1.5947878447205959 0.0 1.220212155279404
  endloop
endfacet
facet normal 0.991444861373811 0.0 0.1305261922200469
  outer loop
    vertex 1.5922395107081202 0.0 1.2395686738352643
    vertex 1.5947878447205959 1.25 1.220212155279404
    vertex 1.5922395107081202 1.25 1.2395686738352643
  endloop
endfacet
facet normal 0.9469301294951028 0.0 0.3214394653031705
  outer loop
    vertex 1.5922395107081202 1.25 1.2395686738352643
    vertex 1.5890949590179908 0.0 1.248832224396269
    vertex 1.5922395107081202 0.0 1.2395686738352643
  endloop
endfacet
facet normal 0.9469301294951028 0.0 0.3214394653031705
  outer loop
    vertex 1.5890949590179908 0.0 1.248832224396269
    vertex 1.5922395107081202 1.25 1.2395686738352643
    vertex 1.5890949590179908 1.25 1.248832224396269
  endloop
endfacet
facet normal 0.8968727415326917 0.0 0.4422886902189943
  outer loop
    vertex 1.5890949590179908 1.25 1.248832224396269
    vertex 1.584768173422322 0.0 1.257606077639702
    vertex 1.5890949590179908 0.0 1.248832224396269
  endloop
endfacet
facet normal 0.8968727415326917 0.0 0.4422886902189943
  outer loop
    vertex 1.584768173422322 0.0 1.257606077639702
    vertex 1.5890949590179908 1.25 1.248832224396269
    vertex 1.584768173422322 1.25 1.257606077639702
  endloop
endfacet
facet normal 0.8314696123025347 0.0 0.5555702330196184
  outer loop
    vertex 1.584768173422322 1.25 1.257606077639702
    vertex 1.5793331864222668 0.0 1.2657401105039963
    vertex 1.584768173422322 0.0 1.257606077639702
  endloop
endfacet
facet normal 0.8314696123025347 0.0 0.5555702330196184
  outer loop
    vertex 1.5793331864222668 0.0 1.2657401105039963
    vertex 1.584768173422322 1.25 1.257606077639702
    vertex 1.5793331864222668 1.25 1.2657401105039963
  endloop
endfacet
facet normal 0.7518398074789774 0.0 0.6593458151000688
  outer loop
    vertex 1.5793331864222668 1.25 1.2657401105039963
    vertex 1.5728829921522598 0.0 1.2730951474316639
    vertex 1.5793331864222668 0.0 1.2657401105039963
  endloop
endfacet
facet normal 0.7518398074789774 0.0 0.6593458151000688
  outer loop
    vertex 1.5728829921522598 0.0 1.2730951474316639
    vertex 1.5793331864222668 1.25 1.2657401105039963
    vertex 1.5728829921522598 1.25 1.2730951474316639
  endloop
endfacet
facet normal 0.6593458151000817 0.0 0.7518398074789662
  outer loop
    vertex 1.5728829921522598 0.0 1.2730951474316639
    vertex 1.5655279552245922 1.25 1.2795453417016711
    vertex 1.5655279552245922 0.0 1.2795453417016711
  endloop
endfacet
facet normal 0.6593458151000817 0.0 0.7518398074789662
  outer loop
    vertex 1.5655279552245922 1.25 1.2795453417016711
    vertex 1.5728829921522598 0.0 1.2730951474316639
    vertex 1.5728829921522598 1.25 1.2730951474316639
  endloop
endfacet
facet normal 0.5555702330196026 0.0 0.8314696123025449
  outer loop
    vertex 1.5655279552245922 0.0 1.2795453417016711
    vertex 1.557393922360298 1.25 1.284980328701726
    vertex 1.557393922360298 0.0 1.284980328701726
  endloop
endfacet
facet normal 0.5555702330196026 0.0 0.8314696123025449
  outer loop
    vertex 1.557393922360298 1.25 1.284980328701726
    vertex 1.5655279552245922 0.0 1.2795453417016711
    vertex 1.5655279552245922 1.25 1.2795453417016711
  endloop
endfacet
facet normal 0.4422886902189943 0.0 0.8968727415326917
  outer loop
    vertex 1.557393922360298 0.0 1.284980328701726
    vertex 1.548620069116865 1.25 1.2893071142973949
    vertex 1.548620069116865 0.0 1.2893071142973949
  endloop
endfacet
facet normal 0.4422886902189943 0.0 0.8968727415326917
  outer loop
    vertex 1.548620069116865 1.25 1.2893071142973949
    vertex 1.557393922360298 0.0 1.284980328701726
    vertex 1.557393922360298 1.25 1.284980328701726
  endloop
endfacet
facet normal 0.3214394653031705 0.0 0.9469301294951028
  outer loop
    vertex 1.548620069116865 0.0 1.2893071142973949
    vertex 1.5393565185558602 1.25 1.2924516659875243
    vertex 1.5393565185558602 0.0 1.2924516659875243
  endloop
endfacet
facet normal 0.3214394653031705 0.0 0.9469301294951028
  outer loop
    vertex 1.5393565185558602 1.25 1.2924516659875243
    vertex 1.548620069116865 0.0 1.2893071142973949
    vertex 1.548620069116865 1.25 1.2893071142973949
  endloop
endfacet
facet normal 0.1305261922200469 0.0 0.991444861373811
  outer loop
    vertex 1.5393565185558602 0.0 1.2924516659875243
    vertex 1.52 1.25 1.295
    vertex 1.52 0.0 1.295
  endloop
endfacet
facet normal 0.1305261922200469 0.0 0.991444861373811
  outer loop
    vertex 1.52 1.25 1.295
    vertex 1.5393565185558602 0.0 1.2924516659875243
    vertex 1.5393565185558602 1.25 1.2924516659875243
  endloop
endfacet
facet normal -0.13052619222004905 0.0 0.9914448613738107
  outer loop
    vertex 0.0 0.0 1.295
    vertex -0.01941142838268907 1.25 1.29244443697168
    vertex -0.01941142838268907 0.0 1.29244443697168
  endloop
endfacet
facet normal -0.13052619222004905 0.0 0.9914448613738107
  outer loop
    vertex -0.01941142838268907 1.25 1.29244443697168
    vertex 0.0 0.0 1.295
    vertex 0.0 1.25 1.295
  endloop
endfacet
facet normal -0.3214394653031706 0.0 0.9469301294951027
  outer loop
    vertex -0.01941142838268907 0.0 1.29244443697168
    vertex -0.028701257427381752 1.25 1.2892909649383464
    vertex -0.028701257427381752 0.0 1.2892909649383464
  endloop
endfacet
facet normal -0.3214394653031706 0.0 0.9469301294951027
  outer loop
    vertex -0.028701257427381752 1.25 1.2892909649383464
    vertex -0.01941142838268907 0.0 1.29244443697168
    vertex -0.01941142838268907 1.25 1.29244443697168
  endloop
endfacet
facet normal -0.44228869021900397 0.0 0.896872741532687
  outer loop
    vertex -0.028701257427381752 0.0 1.2892909649383464
    vertex -0.037500000000000026 1.25 1.2849519052838327
    vertex -0.037500000000000026 0.0 1.2849519052838327
  endloop
endfacet
facet normal -0.44228869021900397 0.0 0.896872741532687
  outer loop
    vertex -0.037500000000000026 1.25 1.2849519052838327
    vertex -0.028701257427381752 0.0 1.2892909649383464
    vertex -0.028701257427381752 1.25 1.2892909649383464
  endloop
endfacet
facet normal -0.5555702330195906 0.0 0.8314696123025531
  outer loop
    vertex -0.037500000000000026 0.0 1.2849519052838327
    vertex -0.045657107175654084 1.25 1.2795015005218426
    vertex -0.045657107175654084 0.0 1.2795015005218426
  endloop
endfacet
facet normal -0.5555702330195906 0.0 0.8314696123025531
  outer loop
    vertex -0.045657107175654084 1.25 1.2795015005218426
    vertex -0.037500000000000026 0.0 1.2849519052838327
    vertex -0.037500000000000026 1.25 1.2849519052838327
  endloop
endfacet
facet normal -0.659345815100076 0.0 0.7518398074789713
  outer loop
    vertex -0.045657107175654084 0.0 1.2795015005218426
    vertex -0.05303300858899111 1.25 1.273033008588991
    vertex -0.05303300858899111 0.0 1.273033008588991
  endloop
endfacet
facet normal -0.659345815100076 0.0 0.7518398074789713
  outer loop
    vertex -0.05303300858899111 1.25 1.273033008588991
    vertex -0.045657107175654084 0.0 1.2795015005218426
    vertex -0.045657107175654084 1.25 1.2795015005218426
  endloop
endfacet
facet normal -0.751839807478976 0.0 0.6593458151000705
  outer loop
    vertex -0.05303300858899111 1.25 1.273033008588991
    vertex -0.05950150052184269 0.0 1.265657107175654
    vertex -0.05303300858899111 0.0 1.273033008588991
  endloop
endfacet
facet normal -0.751839807478976 0.0 0.6593458151000705
  outer loop
    vertex -0.05950150052184269 0.0 1.265657107175654
    vertex -0.05303300858899111 1.25 1.273033008588991
    vertex -0.05950150052184269 1.25 1.265657107175654
  endloop
endfacet
facet normal -0.8314696123025388 0.0 0.5555702330196117
  outer loop
    vertex -0.05950150052184269 1.25 1.265657107175654
    vertex -0.06495190528383298 0.0 1.2575
    vertex -0.05950150052184269 0.0 1.265657107175654
  endloop
endfacet
facet normal -0.8314696123025388 0.0 0.5555702330196117
  outer loop
    vertex -0.06495190528383298 0.0 1.2575
    vertex -0.05950150052184269 1.25 1.265657107175654
    vertex -0.06495190528383298 1.25 1.2575
  endloop
endfacet
facet normal -0.8968727415326895 0.0 0.442288690218999
  outer loop
    vertex -0.06495190528383298 1.25 1.2575
    vertex -0.0692909649383466 0.0 1.2487012574273817
    vertex -0.06495190528383298 0.0 1.2575
  endloop
endfacet
facet normal -0.8968727415326895 0.0 0.442288690218999
  outer loop
    vertex -0.0692909649383466 0.0 1.2487012574273817
    vertex -0.06495190528383298 1.25 1.2575
    vertex -0.0692909649383466 1.25 1.2487012574273817
  endloop
endfacet
facet normal -0.9469301294951059 0.0 0.3214394653031613
  outer loop
    vertex -0.0692909649383466 1.25 1.2487012574273817
    vertex -0.07244443697168025 0.0 1.239411428382689
    vertex -0.0692909649383466 0.0 1.2487012574273817
  endloop
endfacet
facet normal -0.9469301294951059 0.0 0.3214394653031613
  outer loop
    vertex -0.07244443697168025 0.0 1.239411428382689
    vertex -0.0692909649383466 1.25 1.2487012574273817
    vertex -0.07244443697168025 1.25 1.239411428382689
  endloop
endfacet
facet normal -0.9914448613738112 0.0 0.1305261922200457
  outer loop
    vertex -0.07244443697168025 1.25 1.239411428382689
    vertex -0.075 0.0 1.22
    vertex -0.07244443697168025 0.0 1.239411428382689
  endloop
endfacet
facet normal -0.9914448613738112 0.0 0.1305261922200457
  outer loop
    vertex -0.075 0.0 1.22
    vertex -0.07244443697168025 1.25 1.239411428382689
    vertex -0.075 1.25 1.22
  endloop
endfacet
facet normal -1.0 -0.0 -0.0
  outer loop
    vertex -0.075 1.25 1.22
    vertex -0.075 0.0 -0.0017690000000001316
    vertex -0.075 0.0 1.22
  endloop
endfacet
facet normal -1.0 -0.0 -0.0
  outer loop
    vertex -0.075 0.0 -0.0017690000000001316
    vertex -0.075 1.25 1.22
    vertex -0.075 1.25 -0.0017690000000001316
  endloop
endfacet
facet normal 0.023580108407870684 0.0 -0.9997219505879987
  outer loop
    vertex 0.0 1.25 0.0
    vertex -0.075 0.0 -0.0017690000000001316
    vertex -0.075 1.25 -0.0017690000000001316
  endloop
endfacet
facet normal 0.023580108407870684 0.0 -0.9997219505879987
  outer loop
    vertex -0.075 0.0 -0.0017690000000001316
    vertex 0.0 1.25 0.0
    vertex 0.0 0.0 0.0
  endloop
endfacet
facet normal 1.0 0.0 -0.0
  outer loop
    vertex 0.0 1.25 0.0
    vertex 0.0 0.0 1.1199999999999999
    vertex 0.0 0.0 0.0
  endloop
endfacet
facet normal 1.0 0.0 -0.0
  outer loop
    vertex 0.0 0.0 1.1199999999999999
    vertex 0.0 1.25 0.0
    vertex 0.0 1.25 1.1199999999999999
  endloop
endfacet
facet normal 0.0 0.0 -1.0
  outer loop
    vertex 1.52 1.25 1.1199999999999999
    vertex 0.0 0.0 1.1199999999999999
    vertex 0.0 1.25 1.1199999999999999
  endloop
endfacet
facet normal 0.0 0.0 -1.0
  outer loop
    vertex 0.0 0.0 1.1199999999999999
    vertex 1.52 1.25 1.1199999999999999
    vertex 1.52 0.0 1.1199999999999999
  endloop
endfacet
facet normal -1.0 -0.0 -0.0
  outer loop
    vertex 1.52 1.25 1.1199999999999999
    vertex 1.52 0.0 0.0
    vertex 1.52 0.0 1.1199999999999999
  endloop
endfacet
facet normal -1.0 -0.0 -0.0
  outer loop
    vertex 1.52 0.0 0.0
    vertex 1.52 1.25 1.1199999999999999
    vertex 1.52 1.25 0.0
  endloop
endfacet
facet normal -0.023646962200591714 -0.0 -0.9997203714932911
  outer loop
    vertex 1.5947878447205959 1.25 -0.0017690000000000206
    vertex 1.52 0.0 0.0
    vertex 1.52 1.25 0.0
  endloop
endfacet
facet normal -0.023646962200591714 -0.0 -0.9997203714932911
  outer loop
    vertex 1.52 0.0 0.0
    vertex 1.5947878447205959 1.25 -0.0017690000000000206
    vertex 1.5947878447205959 0.0 -0.0017690000000000206
  endloop
endfacet
facet normal -0.0 -0.0 1.0
  outer loop
    vertex 0.6819927419729136 1.25 1.295
    vertex 0.0 1.25 1.295
    vertex 0.6819927419729136 0.5182173346020228 1.295
  endloop
endfacet
facet normal -0.0 -0.0 1.0
  outer loop
    vertex 0.0 0.0 1.295
    vertex 0.6819927419729136 0.5182173346020228 1.295
    vertex 0.0 1.25 1.295
  endloop
endfacet
facet normal -0.0 -0.0 1.0
  outer loop
    vertex 0.6819927419729136 0.5182173346020228 1.295
    vertex 0.0 0.0 1.295
    vertex 1.52 0.0 1.295
  endloop
endfacet
facet normal -0.0 -0.0 1.0
  outer loop
    vertex 0.6819927419729136 0.5182173346020228 1.295
    vertex 1.52 0.0 1.295
    vertex 0.8394730569335436 0.5182173346020228 1.295
  endloop
endfacet
facet normal -0.0 -0.0 1.0
  outer loop
    vertex 0.8394730569335436 0.5182173346020228 1.295
    vertex 1.52 0.0 1.295
    vertex 0.8394730569335436 1.25 1.295
  endloop
endfacet
facet normal -0.0 -0.0 1.0
  outer loop
    vertex 0.8394730569335436 1.25 1.295
    vertex 1.52 0.0 1.295
    vertex 1.52 1.25 1.295
  endloop
endfacet
facet normal -0.0 -0.0 1.0
  outer loop
    vertex 0.8394730569335436 0.5182173346020228 1.2359448818897638
    vertex 0.6819927419729136 1.25 1.2359448818897638
    vertex 0.6819927419729136 0.5182173346020228 1.2359448818897638
  endloop
endfacet
facet normal -0.0 -0.0 1.0
  outer loop
    vertex 0.6819927419729136 1.25 1.2359448818897638
    vertex 0.8394730569335436 0.5182173346020228 1.2359448818897638
    vertex 0.8394730569335436 1.25 1.2359448818897638
  endloop
endfacet
facet normal -0.0 1.0 -0.0
  outer loop
    vertex 0.6819927419729136 0.5182173346020228 1.295
    vertex 0.8394730569335436 0.5182173346020228 1.2359448818897638
    vertex 0.6819927419729136 0.5182173346020228 1.2359448818897638
  endloop
endfacet
facet normal -0.0 1.0 -0.0
  outer loop
    vertex 0.8394730569335436 0.5182173346020228 1.2359448818897638
    vertex 0.6819927419729136 0.5182173346020228 1.295
    vertex 0.8394730569335436 0.5182173346020228 1.295
  endloop
endfacet
facet normal 1.0 -0.0 -0.0
  outer loop
    vertex 0.6819927419729136 1.25 1.2359448818897638
    vertex 0.6819927419729136 0.5182173346020228 1.295
    vertex 0.6819927419729136 0.5182173346020228 1.2359448818897638
  endloop
endfacet
facet normal 1.0 -0.0 -0.0
  outer loop
    vertex 0.6819927419729136 0.5182173346020228 1.295
    vertex 0.6819927419729136 1.25 1.2359448818897638
    vertex 0.6819927419729136 1.25 1.295
  endloop
endfacet
facet normal -1.0 0.0 0.0
  outer loop
    vertex 0.8394730569335436 1.25 1.295
    vertex 0.8394730569335436 0.5182173346020228 1.2359448818897638
    vertex 0.8394730569335436 0.5182173346020228 1.295
  endloop
endfacet
facet normal -1.0 0.0 0.0
  outer loop
    vertex 0.8394730569335436 0.5182173346020228 1.2359448818897638
    vertex 0.8394730569335436 1.25 1.295
    vertex 0.8394730569335436 1.25 1.2359448818897638
  endloop
endfacet
endsolid Sensor Mount
