solid Sensor Mount v4
facet normal 0.0004119070788038229 0.0 -0.9999999151662756
  outer loop
    vertex 2.9801317124679665 2.77128983711839 1.1102230246251565e-16
    vertex 2.8903438677473705 2.377589049716815 -3.6984251968352755e-05
    vertex 2.8903438677473705 2.77128983711839 -3.6984251968352755e-05
  endloop
endfacet
facet normal 0.0004119070788038229 0.0 -0.9999999151662756
  outer loop
    vertex 2.8903438677473705 2.377589049716815 -3.6984251968352755e-05
    vertex 2.9801317124679665 2.77128983711839 1.1102230246251565e-16
    vertex 2.9801317124679665 2.377589049716815 1.1102230246251565e-16
  endloop
endfacet
facet normal -1.0 0.0 2.262889481449419e-15
  outer loop
    vertex 2.8903438677473723 2.77128983711839 0.7849579763779533
    vertex 2.8903438677473705 2.377589049716815 -3.6984251968352755e-05
    vertex 2.8903438677473723 2.377589049716815 0.7849579763779533
  endloop
endfacet
facet normal -1.0 0.0 2.262889481449419e-15
  outer loop
    vertex 2.8903438677473705 2.377589049716815 -3.6984251968352755e-05
    vertex 2.8903438677473723 2.77128983711839 0.7849579763779533
    vertex 2.8903438677473705 2.77128983711839 -3.6984251968352755e-05
  endloop
endfacet
facet normal 1.0 0.0 0.0
  outer loop
    vertex 1.4003438677473723 2.77128983711839 -0.0002552519685035115
    vertex 1.4003438677473723 2.377589049716815 0.7849579763779533
    vertex 1.4003438677473723 2.377589049716815 -0.0002552519685035115
  endloop
endfacet
facet normal 1.0 0.0 0.0
  outer loop
    vertex 1.4003438677473723 2.377589049716815 0.7849579763779533
    vertex 1.4003438677473723 2.77128983711839 -0.0002552519685035115
    vertex 1.4003438677473723 2.77128983711839 0.7849579763779533
  endloop
endfacet
facet normal -0.0028361215770101988 -0.0 -0.9999959781991129
  outer loop
    vertex 1.4003438677473723 2.77128983711839 -0.0002552519685035115
    vertex 1.3103438677473722 2.377589049716815 0.0
    vertex 1.3103438677473722 2.77128983711839 0.0
  endloop
endfacet
facet normal -0.0028361215770101988 -0.0 -0.9999959781991129
  outer loop
    vertex 1.3103438677473722 2.377589049716815 0.0
    vertex 1.4003438677473723 2.77128983711839 -0.0002552519685035115
    vertex 1.4003438677473723 2.377589049716815 -0.0002552519685035115
  endloop
endfacet
facet normal -1.0 1.6490699431802383e-08 -5.126731722580852e-09
  outer loop
    vertex 1.3103438677473722 2.377589049716815 0.903068212598426
    vertex 1.310343853099796 2.436644167827051 0.8046430157480322
    vertex 1.3103438677473722 2.377589049716815 0.0
  endloop
endfacet
facet normal -1.0 1.6490699431802383e-08 -5.126731722580852e-09
  outer loop
    vertex 1.310343853099796 2.436644167827051 0.8046430157480322
    vertex 1.3103438677473722 2.377589049716815 0.903068212598426
    vertex 1.310343853265559 2.4661717268821692 0.903068212598426
  endloop
endfacet
facet normal -1.0 1.6490699431802383e-08 -5.126731722580852e-09
  outer loop
    vertex 1.3103438677473722 2.77128983711839 0.903068212598426
    vertex 1.3103438677473722 2.7122090947189164 0.8056470942712332
    vertex 1.3103438675803065 2.682707159953036 0.903068212598426
  endloop
endfacet
facet normal -1.0 1.6490699431802383e-08 -5.126731722580852e-09
  outer loop
    vertex 1.310343853099796 2.436644167827051 0.8046430157480322
    vertex 1.3103438677473722 2.77128983711839 0.0
    vertex 1.3103438677473722 2.377589049716815 0.0
  endloop
endfacet
facet normal -1.0 1.6490699431802383e-08 -5.126731722580852e-09
  outer loop
    vertex 1.3103438677473722 2.77128983711839 0.0
    vertex 1.310343853099796 2.436644167827051 0.8046430157480322
    vertex 1.3103438677473722 2.7122090947189164 0.8056470942712332
  endloop
endfacet
facet normal -1.0 1.6490699431802383e-08 -5.126731722580852e-09
  outer loop
    vertex 1.3103438677473722 2.77128983711839 0.0
    vertex 1.3103438677473722 2.7122090947189164 0.8056470942712332
    vertex 1.3103438677473722 2.77128983711839 0.903068212598426
  endloop
endfacet
facet normal 4.294013326462979e-20 -0.0036436852440137092 0.9999933617568881
  outer loop
    vertex 2.2436629869580638 2.436644167827051 0.8046430157480322
    vertex 1.3103438677473722 2.7122090947189164 0.8056470942712332
    vertex 1.310343853099796 2.436644167827051 0.8046430157480322
  endloop
endfacet
facet normal 4.294013326462979e-20 -0.0036436852440137092 0.9999933617568881
  outer loop
    vertex 1.3103438677473722 2.7122090947189164 0.8056470942712332
    vertex 2.2436629869580638 2.436644167827051 0.8046430157480322
    vertex 2.2436629869580638 2.7122090947189164 0.8056470942712332
  endloop
endfacet
facet normal -0.9805391336849347 0.0007153418813105859 -0.19632242765000305
  outer loop
    vertex 2.2436629869580638 2.7122090947189164 0.8056470942712332
    vertex 2.2436629869580638 2.436644167827051 0.8046430157480322
    vertex 2.223977947753748 2.4661717268821692 0.903068212598426
  endloop
endfacet
facet normal -0.9801901965515918 -1.506611293835352e-09 -0.19805852312928085
  outer loop
    vertex 2.2436629869580638 2.7122090947189164 0.8056470942712332
    vertex 2.223977947753748 2.4661717268821692 0.903068212598426
    vertex 2.22397794742092 2.682707159953036 0.903068212598426
  endloop
endfacet
facet normal -1.4237749172267673e-18 0.9578262852211518 -0.2873478855663449
  outer loop
    vertex 1.310343853265559 2.4661717268821692 0.903068212598426
    vertex 2.2436629869580638 2.436644167827051 0.8046430157480322
    vertex 1.310343853099796 2.436644167827051 0.8046430157480322
  endloop
endfacet
facet normal -1.4237749172267673e-18 0.9578262852211518 -0.2873478855663449
  outer loop
    vertex 2.2436629869580638 2.436644167827051 0.8046430157480322
    vertex 1.310343853265559 2.4661717268821692 0.903068212598426
    vertex 2.223977947753748 2.4661717268821692 0.903068212598426
  endloop
endfacet
facet normal 1.0014752880980998e-18 -0.9570778743971528 -0.2898308857582784
  outer loop
    vertex 2.22397794742092 2.682707159953036 0.903068212598426
    vertex 1.3103438677473722 2.7122090947189164 0.8056470942712332
    vertex 2.2436629869580638 2.7122090947189164 0.8056470942712332
  endloop
endfacet
facet normal 1.0014752880980998e-18 -0.9570778743971528 -0.2898308857582784
  outer loop
    vertex 1.3103438677473722 2.7122090947189164 0.8056470942712332
    vertex 2.22397794742092 2.682707159953036 0.903068212598426
    vertex 1.3103438675803065 2.682707159953036 0.903068212598426
  endloop
endfacet
facet normal -0.0 -0.0 -1.0
  outer loop
    vertex 2.8903438677473723 2.77128983711839 0.7849579763779533
    vertex 1.4003438677473723 2.377589049716815 0.7849579763779533
    vertex 1.4003438677473723 2.77128983711839 0.7849579763779533
  endloop
endfacet
facet normal -0.0 -0.0 -1.0
  outer loop
    vertex 1.4003438677473723 2.377589049716815 0.7849579763779533
    vertex 2.8903438677473723 2.77128983711839 0.7849579763779533
    vertex 2.8903438677473723 2.377589049716815 0.7849579763779533
  endloop
endfacet
facet normal 0.0 1.0 0.0
  outer loop
    vertex 1.3103438677473722 2.77128983711839 0.0
    vertex 1.4003438677473723 2.77128983711839 0.7849579763779533
    vertex 1.4003438677473723 2.77128983711839 -0.0002552519685035115
  endloop
endfacet
facet normal 0.0 1.0 0.0
  outer loop
    vertex 1.4003438677473723 2.77128983711839 0.7849579763779533
    vertex 1.3103438677473722 2.77128983711839 0.0
    vertex 1.3103438677473722 2.77128983711839 0.903068212598426
  endloop
endfacet
facet normal 0.0 1.0 0.0
  outer loop
    vertex 1.4003438677473723 2.77128983711839 0.7849579763779533
    vertex 1.3103438677473722 2.77128983711839 0.903068212598426
    vertex 2.8903438677473723 2.77128983711839 0.7849579763779533
  endloop
endfacet
facet normal 0.0 1.0 0.0
  outer loop
    vertex 2.8903438677473723 2.77128983711839 0.7849579763779533
    vertex 2.9801317124679665 2.77128983711839 1.1102230246251565e-16
    vertex 2.8903438677473705 2.77128983711839 -3.6984251968352755e-05
  endloop
endfacet
facet normal 0.0 1.0 0.0
  outer loop
    vertex 2.9801317124679665 2.77128983711839 1.1102230246251565e-16
    vertex 2.8903438677473723 2.77128983711839 0.7849579763779533
    vertex 2.9801317124679683 2.77128983711839 0.903068212598426
  endloop
endfacet
facet normal 0.0 1.0 0.0
  outer loop
    vertex 2.9801317124679683 2.77128983711839 0.903068212598426
    vertex 2.8903438677473723 2.77128983711839 0.7849579763779533
    vertex 1.3103438677473722 2.77128983711839 0.903068212598426
  endloop
endfacet
facet normal 0.0 -1.0 0.0
  outer loop
    vertex 2.9801317124679665 2.377589049716815 1.1102230246251565e-16
    vertex 2.8903438677473723 2.377589049716815 0.7849579763779533
    vertex 2.8903438677473705 2.377589049716815 -3.6984251968352755e-05
  endloop
endfacet
facet normal 0.0 -1.0 0.0
  outer loop
    vertex 2.8903438677473723 2.377589049716815 0.7849579763779533
    vertex 2.9801317124679665 2.377589049716815 1.1102230246251565e-16
    vertex 2.9801317124679683 2.377589049716815 0.903068212598426
  endloop
endfacet
facet normal 0.0 -1.0 0.0
  outer loop
    vertex 2.8903438677473723 2.377589049716815 0.7849579763779533
    vertex 2.9801317124679683 2.377589049716815 0.903068212598426
    vertex 1.4003438677473723 2.377589049716815 0.7849579763779533
  endloop
endfacet
facet normal 0.0 -1.0 0.0
  outer loop
    vertex 1.4003438677473723 2.377589049716815 0.7849579763779533
    vertex 1.3103438677473722 2.377589049716815 0.0
    vertex 1.4003438677473723 2.377589049716815 -0.0002552519685035115
  endloop
endfacet
facet normal 0.0 -1.0 0.0
  outer loop
    vertex 1.3103438677473722 2.377589049716815 0.0
    vertex 1.4003438677473723 2.377589049716815 0.7849579763779533
    vertex 1.3103438677473722 2.377589049716815 0.903068212598426
  endloop
endfacet
facet normal 0.0 -1.0 0.0
  outer loop
    vertex 1.3103438677473722 2.377589049716815 0.903068212598426
    vertex 1.4003438677473723 2.377589049716815 0.7849579763779533
    vertex 2.9801317124679683 2.377589049716815 0.903068212598426
  endloop
endfacet
facet normal -0.0 -0.0 1.0
  outer loop
    vertex 1.3103438677473722 2.377589049716815 0.903068212598426
    vertex 2.223977947753748 2.4661717268821692 0.903068212598426
    vertex 1.310343853265559 2.4661717268821692 0.903068212598426
  endloop
endfacet
facet normal -0.0 -0.0 1.0
  outer loop
    vertex 2.223977947753748 2.4661717268821692 0.903068212598426
    vertex 1.3103438677473722 2.377589049716815 0.903068212598426
    vertex 2.9801317124679683 2.377589049716815 0.903068212598426
  endloop
endfacet
facet normal -0.0 -0.0 1.0
  outer loop
    vertex 2.22397794742092 2.682707159953036 0.903068212598426
    vertex 1.3103438677473722 2.77128983711839 0.903068212598426
    vertex 1.3103438675803065 2.682707159953036 0.903068212598426
  endloop
endfacet
facet normal -0.0 -0.0 1.0
  outer loop
    vertex 1.3103438677473722 2.77128983711839 0.903068212598426
    vertex 2.22397794742092 2.682707159953036 0.903068212598426
    vertex 2.9801317124679683 2.77128983711839 0.903068212598426
  endloop
endfacet
facet normal -0.0 -0.0 1.0
  outer loop
    vertex 2.9801317124679683 2.77128983711839 0.903068212598426
    vertex 2.22397794742092 2.682707159953036 0.903068212598426
    vertex 2.223977947753748 2.4661717268821692 0.903068212598426
  endloop
endfacet
facet normal -0.0 -0.0 1.0
  outer loop
    vertex 2.9801317124679683 2.77128983711839 0.903068212598426
    vertex 2.223977947753748 2.4661717268821692 0.903068212598426
    vertex 2.9801317124679683 2.377589049716815 0.903068212598426
  endloop
endfacet
facet normal 1.0 0.0 -1.9670239906784944e-15
  outer loop
    vertex 2.9801317124679665 2.77128983711839 1.1102230246251565e-16
    vertex 2.9801317124679683 2.377589049716815 0.903068212598426
    vertex 2.9801317124679665 2.377589049716815 1.1102230246251565e-16
  endloop
endfacet
facet normal 1.0 0.0 -1.9670239906784944e-15
  outer loop
    vertex 2.9801317124679683 2.377589049716815 0.903068212598426
    vertex 2.9801317124679665 2.77128983711839 1.1102230246251565e-16
    vertex 2.9801317124679683 2.77128983711839 0.903068212598426
  endloop
endfacet
endsolid Sensor Mount v4
